<svg xmlns="http://www.w3.org/2000/svg" viewBox="0 0 128 128" role="img" aria-labelledby="title desc">
  <title id="title">Briar Sniper enemy</title>
  <desc id="desc">A crouched briar-mantis archer with a tensioned thorn crossbow aimed leftward.</desc>
  <defs>
    <linearGradient id="carapace" x1="0" x2="0" y1="0" y2="1">
      <stop offset="0%" stop-color="#8f2d4a"/>
      <stop offset="100%" stop-color="#3c0f24"/>
    </linearGradient>
    <linearGradient id="bow" x1="0" x2="1" y1="0" y2="1">
      <stop offset="0%" stop-color="#d7b66b"/>
      <stop offset="100%" stop-color="#6b4520"/>
    </linearGradient>
    <radialGradient id="eye" cx="50%" cy="50%" r="60%">
      <stop offset="0%" stop-color="#fff7a0"/>
      <stop offset="100%" stop-color="#cc5a28"/>
    </radialGradient>
  </defs>

  <ellipse cx="64" cy="108" rx="38" ry="12" fill="#0b0609" opacity=".42"/>

  <path d="M52 98 L40 116 L52 114 Z" fill="#3c0f24" stroke="#1b0510" stroke-width="2"/>
  <path d="M76 98 L88 116 L76 114 Z" fill="#3c0f24" stroke="#1b0510" stroke-width="2"/>

  <path d="M64 50 C44 54 36 78 48 96 C56 108 72 108 80 96 C92 78 84 54 64 50 Z"
        fill="url(#carapace)" stroke="#12050b" stroke-width="3.5"/>

  <path d="M52 70 C42 66 36 58 32 50" fill="none" stroke="#6c1a32" stroke-width="5" stroke-linecap="round"/>
  <path d="M76 70 C86 66 92 58 96 50" fill="none" stroke="#6c1a32" stroke-width="5" stroke-linecap="round"/>

  <path d="M64 36 C52 38 46 48 48 58 C50 66 56 70 64 70 C72 70 78 66 80 58 C82 48 76 38 64 36 Z"
        fill="#4e1327" stroke="#12050b" stroke-width="3"/>

  <circle cx="56" cy="52" r="5" fill="url(#eye)"/>
  <circle cx="72" cy="52" r="5" fill="url(#eye)"/>
  <circle cx="56" cy="52" r="1.8" fill="#1b0510"/>
  <circle cx="72" cy="52" r="1.8" fill="#1b0510"/>

  <path d="M14 62 C14 52 22 44 32 44 C30 54 30 70 32 80 C22 80 14 72 14 62 Z"
        fill="url(#bow)" stroke="#2a1706" stroke-width="3" stroke-linejoin="round"/>
  <path d="M32 48 L60 58 L32 68" fill="none" stroke="#f5e4a8" stroke-width="2.2" stroke-linecap="round"/>

  <path d="M60 58 L14 58" stroke="#edf0d0" stroke-width="2.5" stroke-linecap="round" opacity=".85"/>
  <path d="M12 54 L4 58 L12 62 Z" fill="#f5e4a8" stroke="#8a6a24" stroke-width="1.5" stroke-linejoin="round"/>

  <path d="M64 52 L62 36 L66 36 Z" fill="#c99237" stroke="#fff1c7" stroke-width="1.4" stroke-linejoin="round"/>
  <path d="M58 54 L50 42" fill="none" stroke="#c99237" stroke-width="2" stroke-linecap="round"/>
  <path d="M70 54 L78 42" fill="none" stroke="#c99237" stroke-width="2" stroke-linecap="round"/>
</svg>
