<svg xmlns="http://www.w3.org/2000/svg" viewBox="0 0 128 128" role="img" aria-labelledby="title desc">
  <title id="title">Cottonburr Mortar plant</title>
  <desc id="desc">A rooted mortar-like plant with a cupped stem and a pale cottonburr payload prepared for a high-arc launch.</desc>
  <defs>
    <linearGradient id="cb-leaf" x1="0" x2="1" y1="0" y2="1">
      <stop offset="0%" stop-color="#6ea56c"/>
      <stop offset="100%" stop-color="#284f34"/>
    </linearGradient>
    <linearGradient id="cb-cup" x1="0" x2="1" y1="0" y2="1">
      <stop offset="0%" stop-color="#4b8459"/>
      <stop offset="100%" stop-color="#204230"/>
    </linearGradient>
    <radialGradient id="cb-burr" cx="46%" cy="38%" r="60%">
      <stop offset="0%" stop-color="#fff9e9"/>
      <stop offset="58%" stop-color="#d9caa6"/>
      <stop offset="100%" stop-color="#8d7045"/>
    </radialGradient>
    <radialGradient id="cb-shadow" cx="50%" cy="50%" r="50%">
      <stop offset="0%" stop-color="#102218" stop-opacity=".35"/>
      <stop offset="100%" stop-color="#102218" stop-opacity="0"/>
    </radialGradient>
  </defs>

  <ellipse cx="64" cy="104" rx="34" ry="14" fill="url(#cb-shadow)"/>
  <ellipse cx="64" cy="99" rx="30" ry="11" fill="#224631" opacity=".82"/>

  <g fill="url(#cb-leaf)" stroke="#143022" stroke-width="2.5" stroke-linejoin="round">
    <path d="M38 90 C26 84 22 72 26 62 C42 68 49 78 52 90 Z"/>
    <path d="M90 90 C102 84 106 72 102 62 C86 68 79 78 76 90 Z"/>
    <path d="M50 108 C42 104 38 98 38 92 C47 94 51 99 54 106 Z"/>
    <path d="M78 108 C86 104 90 98 90 92 C81 94 77 99 74 106 Z"/>
  </g>

  <path d="M64 96 C61 78 58 63 52 47" fill="none" stroke="#28503a" stroke-width="8" stroke-linecap="round"/>
  <path d="M64 96 C67 78 70 63 76 47" fill="none" stroke="#28503a" stroke-width="8" stroke-linecap="round"/>
  <path d="M52 49 C54 38 60 32 64 32 C68 32 74 38 76 49" fill="none" stroke="#28503a" stroke-width="7" stroke-linecap="round"/>

  <path d="M41 56 C45 38 55 28 64 28 C73 28 83 38 87 56 C80 60 72 62 64 62 C56 62 48 60 41 56 Z" fill="url(#cb-cup)" stroke="#143022" stroke-width="3"/>

  <circle cx="64" cy="34" r="19" fill="url(#cb-burr)" stroke="#6f5732" stroke-width="3"/>
  <g fill="#6f5732">
    <circle cx="53" cy="20" r="2.4"/>
    <circle cx="65" cy="16" r="2.4"/>
    <circle cx="77" cy="22" r="2.4"/>
    <circle cx="82" cy="34" r="2.4"/>
    <circle cx="75" cy="47" r="2.4"/>
    <circle cx="61" cy="52" r="2.4"/>
    <circle cx="49" cy="46" r="2.4"/>
    <circle cx="45" cy="33" r="2.4"/>
  </g>
  <g fill="#fffdf6" opacity=".92">
    <circle cx="57" cy="29" r="3.3"/>
    <circle cx="69" cy="27" r="2.8"/>
    <circle cx="62" cy="39" r="2.9"/>
  </g>
</svg>
